<?xml version="1.0" encoding="UTF-8" standalone="no"?>
<!-- Created with Inkscape (http://www.inkscape.org/) -->

<svg
   version="1.1"
   id="svg1"
   width="165.66405"
   height="144.55859"
   viewBox="0 0 165.66405 144.5586"
   sodipodi:docname="graphycs02.svg"
   inkscape:version="1.3.2 (091e20e, 2023-11-25, custom)"
   xmlns:inkscape="http://www.inkscape.org/namespaces/inkscape"
   xmlns:sodipodi="http://sodipodi.sourceforge.net/DTD/sodipodi-0.dtd"
   xmlns="http://www.w3.org/2000/svg"
   xmlns:svg="http://www.w3.org/2000/svg">
  <defs
     id="defs1" />
  <sodipodi:namedview
     id="namedview1"
     pagecolor="#ffffff"
     bordercolor="#666666"
     borderopacity="1.0"
     inkscape:showpageshadow="2"
     inkscape:pageopacity="0.0"
     inkscape:pagecheckerboard="0"
     inkscape:deskcolor="#d1d1d1"
     showgrid="false"
     inkscape:zoom="3.99063"
     inkscape:cx="63.147925"
     inkscape:cy="92.717191"
     inkscape:window-width="1920"
     inkscape:window-height="1001"
     inkscape:window-x="-9"
     inkscape:window-y="41"
     inkscape:window-maximized="1"
     inkscape:current-layer="g1">
    <inkscape:page
       x="0"
       y="0"
       inkscape:label="1"
       id="page1"
       width="165.66405"
       height="144.55859"
       margin="0"
       bleed="0" />
  </sodipodi:namedview>
  <g
     id="g1"
     inkscape:groupmode="layer"
     inkscape:label="1"
     transform="translate(-41.265625,-3.8476569)">
    <path
       id="path1"
       d="M 0,-18.42523 V 73.70099 H 92.12625 V -18.42523 Z"
       style="fill:#f2f2f2;fill-opacity:1;fill-rule:nonzero;stroke:none"
       transform="matrix(1.3333333,0,0,-1.3333333,84.094667,108.85733)" />
    <path
       id="path2"
       d="M 0,-18.42523 H 92.12625 M 0,0 H 92.12625 M 0,18.42523 H 92.12625 M 0,36.85048 H 92.12625 M 0,55.27574 H 92.12625 M 0,73.69453 H 92.12625 M 0,-18.42523 v 92.12622 m 18.42523,-92.12622 v 92.12622 m 18.42525,-92.12622 v 92.12622 m 18.42526,-92.12622 v 92.12622 m 18.42525,-92.12622 v 92.12622 m 18.41879,-92.12622 v 92.12622"
       style="fill:none;stroke:#999999;stroke-width:0.19925;stroke-linecap:butt;stroke-linejoin:miter;stroke-miterlimit:10;stroke-dasharray:none;stroke-opacity:1"
       transform="matrix(1.3333333,0,0,-1.3333333,84.094667,108.85733)" />
    <path
       id="path3"
       d="M 18.42523,1.29514 V -1.29514"
       style="fill:none;stroke:#000000;stroke-width:0.79701;stroke-linecap:butt;stroke-linejoin:miter;stroke-miterlimit:10;stroke-dasharray:none;stroke-opacity:1"
       transform="matrix(1.3333333,0,0,-1.3333333,84.094667,108.85733)" />
    <path
       id="path4"
       d="m 4.1380703,-9.1988984 c 0,-0.328125 0,-0.3398438 -0.2929687,-0.3398438 -0.3398438,0.3867188 -1.0664063,0.9140625 -2.5429688,0.9140625 v 0.421875 c 0.3398438,0 1.0546875,0 1.8398438,-0.375 v 7.4765625 c 0,0.51562501 -0.046875,0.69140626 -1.3007813,0.69140626 H 1.3958828 V 3.203125e-4 c 0.3867188,-0.0234375025 1.78125,-0.0234375025 2.25,-0.0234375025 0.46875,0 1.8515625,0 2.2382813,0.0234375025 V -0.40983594 H 5.4388516 c -1.265625,0 -1.3007813,-0.17578125 -1.3007813,-0.69140626 z m 0,0"
       style="fill:#000000;fill-opacity:1;fill-rule:nonzero;stroke:none"
       aria-label="1"
       transform="matrix(1.3333333,0,0,1.3333333,103.97867,127.87067)" />
    <path
       id="path5"
       d="M 36.85048,1.29514 V -1.29514"
       style="fill:none;stroke:#000000;stroke-width:0.79701;stroke-linecap:butt;stroke-linejoin:miter;stroke-miterlimit:10;stroke-dasharray:none;stroke-opacity:1"
       transform="matrix(1.3333333,0,0,-1.3333333,84.094667,108.85733)" />
    <path
       id="path6"
       d="M 6.3175625,-2.4137422 H 6.0011563 c -0.046875,0.2460938 -0.1640625,1.03125 -0.3046875,1.265625 C 5.591,-1.0192109 4.7824063,-1.0192109 4.3488125,-1.0192109 H 1.6886563 c 0.3867187,-0.328125 1.265625,-1.2421875 1.640625,-1.59375 2.1796875,-2.0039063 2.9882812,-2.7539063 2.9882812,-4.171875 0,-1.6523438 -1.3125,-2.7539063 -2.9765625,-2.7539063 -1.6640625,0 -2.63671875,1.4179688 -2.63671875,2.6484375 0,0.7382813 0.63281255,0.7382813 0.67968755,0.7382813 0.2929687,0 0.6679687,-0.2109375 0.6679687,-0.6796875 0,-0.3984375 -0.2695312,-0.6679688 -0.6679687,-0.6679688 -0.140625,0 -0.1640625,0 -0.2109375,0.011719 0.28125,-0.9726563 1.0546875,-1.6289063 1.9804687,-1.6289063 1.21875,0 1.96875,1.0078125 1.96875,2.3320313 0,1.21875 -0.703125,2.2851562 -1.5234375,3.1992187 L 0.70428125,-0.33952344 V 3.203125e-4 H 5.9425625 Z m 0,0"
       style="fill:#000000;fill-opacity:1;fill-rule:nonzero;stroke:none"
       aria-label="2"
       transform="matrix(1.3333333,0,0,1.3333333,128.54533,127.87067)" />
    <path
       id="path7"
       d="M 55.27574,1.29514 V -1.29514"
       style="fill:none;stroke:#000000;stroke-width:0.79701;stroke-linecap:butt;stroke-linejoin:miter;stroke-miterlimit:10;stroke-dasharray:none;stroke-opacity:1"
       transform="matrix(1.3333333,0,0,-1.3333333,84.094667,108.85733)" />
    <path
       id="path8"
       d="m 2.6376797,-5.1442109 c -0.2460938,0.011719 -0.2929688,0.023437 -0.2929688,0.1523437 0,0.140625 0.070312,0.140625 0.328125,0.140625 h 0.65625 c 1.21875,0 1.7695313,1.0078125 1.7695313,2.3789063 0,1.88671871 -0.984375,2.39062496 -1.6875,2.39062496 -0.6796875,0 -1.8632813,-0.328125 -2.2734375,-1.27734376 0.4570312,0.070312 0.8671875,-0.1875 0.8671875,-0.703125 0,-0.421875 -0.2929688,-0.703125 -0.703125,-0.703125 -0.33984376,0 -0.71484376,0.1992188 -0.71484376,0.7382813 0,1.27734371 1.27734376,2.33203121 2.87109376,2.33203121 1.7109375,0 2.9648437,-1.31250001 2.9648437,-2.75390621 0,-1.3242188 -1.0546875,-2.3554688 -2.4375,-2.6015625 1.2539063,-0.3515625 2.0507813,-1.40625 2.0507813,-2.5195313 0,-1.1367187 -1.171875,-1.96875 -2.5664063,-1.96875 -1.4296875,0 -2.49609371,0.8789063 -2.49609371,1.921875 0,0.5742188 0.44531251,0.6914063 0.66796871,0.6914063 0.2929688,0 0.6445313,-0.2226563 0.6445313,-0.6445313 0,-0.4570312 -0.3515625,-0.6679687 -0.6679688,-0.6679687 -0.082031,0 -0.1054687,0 -0.1523437,0.023437 0.5390625,-0.984375 1.8867187,-0.984375 1.96875,-0.984375 0.46875,0 1.3945312,0.2226562 1.3945312,1.6289062 0,0.2695313 -0.035156,1.078125 -0.4570312,1.6875 -0.421875,0.6328125 -0.9140625,0.6796875 -1.3007813,0.6914063 z m 0,0"
       style="fill:#000000;fill-opacity:1;fill-rule:nonzero;stroke:none"
       aria-label="3"
       transform="matrix(1.3333333,0,0,1.3333333,153.112,127.87067)" />
    <path
       id="path9"
       d="M 73.70099,1.29514 V -1.29514"
       style="fill:none;stroke:#000000;stroke-width:0.79701;stroke-linecap:butt;stroke-linejoin:miter;stroke-miterlimit:10;stroke-dasharray:none;stroke-opacity:1"
       transform="matrix(1.3333333,0,0,-1.3333333,84.094667,108.85733)" />
    <path
       id="path10"
       d="m 5.1804531,-9.3395234 c 0,-0.2695313 0,-0.3398438 -0.1992187,-0.3398438 -0.1171875,0 -0.1640625,0 -0.28125,0.1640625 l -4.31250002,6.703125 v 0.421875 H 4.1609219 v 1.3007813 c 0,0.52734371 -0.023437,0.67968746 -1.078125,0.67968746 h -0.28125 V 3.203125e-4 C 3.1296719,-0.02311719 4.2663906,-0.02311719 4.6648281,-0.02311719 c 0.3984375,0 1.546875,0 1.875,0.0234375025 V -0.40983594 h -0.28125 c -1.03125,0 -1.078125,-0.15234375 -1.078125,-0.67968746 v -1.3007813 h 1.4414063 v -0.421875 H 5.1804531 Z m -0.9492187,1.125 v 5.4023437 H 0.75076563 Z m 0,0"
       style="fill:#000000;fill-opacity:1;fill-rule:nonzero;stroke:none"
       aria-label="4"
       transform="matrix(1.3333333,0,0,1.3333333,177.67867,127.87067)" />
    <path
       id="path11"
       d="M 1.29514,-18.42523 H -1.29514"
       style="fill:none;stroke:#000000;stroke-width:0.79701;stroke-linecap:butt;stroke-linejoin:miter;stroke-miterlimit:10;stroke-dasharray:none;stroke-opacity:1"
       transform="matrix(1.3333333,0,0,-1.3333333,84.094667,108.85733)" />
    <g
       id="g11"
       aria-label="−1"
       transform="matrix(1.3333333,0,0,1.3333333,53.166667,138.79067)">
      <path
         id="path12"
         d="m 9.4580078,-3.3058906 c 0.234375,0 0.4921875,0 0.4921875,-0.28125 0,-0.28125 -0.2578125,-0.28125 -0.4921875,-0.28125 H 1.6884766 c -0.234375,0 -0.4921875,0 -0.4921875,0.28125 0,0.28125 0.2578125,0.28125 0.4921875,0.28125 z m 0,0"
         style="fill:#000000;fill-opacity:1;fill-rule:nonzero;stroke:none" />
      <path
         id="path13"
         d="m 15.293945,-9.2004219 c 0,-0.328125 0,-0.3398437 -0.292968,-0.3398437 -0.339844,0.3867187 -1.066407,0.9140625 -2.542969,0.9140625 v 0.421875 c 0.339844,0 1.054687,0 1.839844,-0.375 v 7.4765625 c 0,0.51562498 -0.04687,0.69140623 -1.300782,0.69140623 h -0.445312 v 0.41015625 c 0.386719,-0.0234375 1.78125,-0.0234375 2.25,-0.0234375 0.46875,0 1.851562,0 2.238281,0.0234375 v -0.41015625 h -0.445312 c -1.265625,0 -1.300782,-0.17578125 -1.300782,-0.69140623 z m 0,0"
         style="fill:#000000;fill-opacity:1;fill-rule:nonzero;stroke:none" />
    </g>
    <path
       id="path14"
       d="M 1.29514,0 H -1.29514"
       style="fill:none;stroke:#000000;stroke-width:0.79701;stroke-linecap:butt;stroke-linejoin:miter;stroke-miterlimit:10;stroke-dasharray:none;stroke-opacity:1"
       transform="matrix(1.3333333,0,0,-1.3333333,84.094667,108.85733)" />
    <path
       id="path15"
       d="m 6.4211016,-4.5951016 c 0,-1.1835937 -0.070312,-2.34375 -0.5859375,-3.4335937 -0.5859375,-1.1953125 -1.6171875,-1.5117188 -2.3203125,-1.5117188 -0.8320313,0 -1.8515625,0.421875 -2.3789063,1.6054688 -0.41015624,0.9023437 -0.55078124,1.7929687 -0.55078124,3.3398437 0,1.3945313 0.10546875,2.4375 0.62109374,3.4570313 0.5625,1.08984374 1.546875,1.44140624 2.296875,1.44140624 1.2421875,0 1.9570313,-0.75 2.3789063,-1.58203124 0.515625,-1.078125 0.5390625,-2.484375 0.5390625,-3.3164063 z M 3.5031328,0.01036719 c -0.46875,0 -1.3945312,-0.2578125 -1.6640625,-1.81640629 -0.1640625,-0.8671875 -0.1640625,-1.9570312 -0.1640625,-2.953125 0,-1.1835937 0,-2.2382812 0.234375,-3.09375 0.2460938,-0.9609375 0.9726563,-1.3945312 1.59375,-1.3945312 0.5390625,0 1.3710938,0.328125 1.640625,1.5585937 0.1875,0.8203125 0.1875,1.9453125 0.1875,2.9296875 0,0.9609375 0,2.0507813 -0.1523437,2.9179688 -0.2695313,1.58203124 -1.1835938,1.85156249 -1.6757813,1.85156249 z m 0,0"
       style="fill:#000000;fill-opacity:1;fill-rule:nonzero;stroke:none"
       aria-label="0"
       transform="matrix(1.3333333,0,0,1.3333333,68.044,115.02133)" />
    <path
       id="path16"
       d="M 1.29514,18.42523 H -1.29514"
       style="fill:none;stroke:#000000;stroke-width:0.79701;stroke-linecap:butt;stroke-linejoin:miter;stroke-miterlimit:10;stroke-dasharray:none;stroke-opacity:1"
       transform="matrix(1.3333333,0,0,-1.3333333,84.094667,108.85733)" />
    <path
       id="path17"
       d="m 4.1359453,-9.200375 c 0,-0.328125 0,-0.3398437 -0.2929687,-0.3398437 C 3.5031328,-9.1535 2.7765703,-8.6261562 1.3000078,-8.6261562 v 0.421875 c 0.3398438,0 1.0546875,0 1.8398438,-0.375 v 7.4765625 c 0,0.51562495 -0.046875,0.6914062 -1.3007813,0.6914062 H 1.3937578 v 0.41015625 c 0.3867188,-0.0234375 1.78125,-0.0234375 2.25,-0.0234375 0.46875,0 1.8515625,0 2.2382813,0.0234375 V -0.4113125 H 5.4367266 c -1.265625,0 -1.3007813,-0.17578125 -1.3007813,-0.6914062 z m 0,0"
       style="fill:#000000;fill-opacity:1;fill-rule:nonzero;stroke:none"
       aria-label="1"
       transform="matrix(1.3333333,0,0,1.3333333,68.044,90.454667)" />
    <path
       id="path18"
       d="M 1.29514,36.85048 H -1.29514"
       style="fill:none;stroke:#000000;stroke-width:0.79701;stroke-linecap:butt;stroke-linejoin:miter;stroke-miterlimit:10;stroke-dasharray:none;stroke-opacity:1"
       transform="matrix(1.3333333,0,0,-1.3333333,84.094667,108.85733)" />
    <path
       id="path19"
       d="M 6.3156328,-2.4150234 H 5.9992266 c -0.046875,0.2460937 -0.1640625,1.03125 -0.3046875,1.265625 -0.1054688,0.1289062 -0.9140625,0.1289062 -1.3476563,0.1289062 H 1.6867266 c 0.3867187,-0.328125 1.265625,-1.2421875 1.640625,-1.59375 2.1796875,-2.0039062 2.9882812,-2.7539062 2.9882812,-4.171875 0,-1.6523437 -1.3125,-2.7539062 -2.9765625,-2.7539062 -1.6640625,0 -2.63671874,1.4179687 -2.63671874,2.6484375 0,0.7382812 0.63281254,0.7382812 0.67968754,0.7382812 0.2929687,0 0.6679687,-0.2109375 0.6679687,-0.6796875 0,-0.3984375 -0.2695312,-0.6679687 -0.6679687,-0.6679687 -0.140625,0 -0.1640625,0 -0.2109375,0.011719 0.28125,-0.9726562 1.0546875,-1.6289062 1.9804687,-1.6289062 1.21875,0 1.96875,1.0078125 1.96875,2.3320312 0,1.21875 -0.703125,2.2851563 -1.5234375,3.1992188 L 0.70235156,-0.34080469 V -9.609375e-4 H 5.9406328 Z m 0,0"
       style="fill:#000000;fill-opacity:1;fill-rule:nonzero;stroke:none"
       aria-label="2"
       transform="matrix(1.3333333,0,0,1.3333333,68.044,65.888)" />
    <path
       id="path20"
       d="M 1.29514,55.27574 H -1.29514"
       style="fill:none;stroke:#000000;stroke-width:0.79701;stroke-linecap:butt;stroke-linejoin:miter;stroke-miterlimit:10;stroke-dasharray:none;stroke-opacity:1"
       transform="matrix(1.3333333,0,0,-1.3333333,84.094667,108.85733)" />
    <path
       id="path21"
       d="m 2.6359453,-5.1452969 c -0.2460937,0.011719 -0.2929687,0.023437 -0.2929687,0.1523438 0,0.140625 0.070312,0.140625 0.328125,0.140625 h 0.65625 c 1.21875,0 1.7695312,1.0078125 1.7695312,2.3789062 0,1.88671878 -0.984375,2.39062503 -1.6875,2.39062503 -0.6796875,0 -1.8632812,-0.328125 -2.2734375,-1.27734373 0.4570313,0.070312 0.8671875,-0.1875 0.8671875,-0.703125 0,-0.421875 -0.2929687,-0.703125 -0.703125,-0.703125 -0.33984374,0 -0.71484374,0.1992187 -0.71484374,0.7382812 0,1.27734378 1.27734374,2.33203128 2.87109374,2.33203128 1.7109375,0 2.9648438,-1.31249998 2.9648438,-2.75390628 0,-1.3242187 -1.0546875,-2.3554687 -2.4375,-2.6015625 1.2539062,-0.3515625 2.0507812,-1.40625 2.0507812,-2.5195312 0,-1.1367188 -1.171875,-1.96875 -2.5664062,-1.96875 -1.4296875,0 -2.49609379,0.8789062 -2.49609379,1.921875 0,0.5742187 0.44531249,0.6914062 0.66796879,0.6914062 0.2929687,0 0.6445312,-0.2226562 0.6445312,-0.6445312 0,-0.4570313 -0.3515625,-0.6679688 -0.6679687,-0.6679688 -0.082031,0 -0.1054688,0 -0.1523438,0.023437 0.5390625,-0.984375 1.8867188,-0.984375 1.96875,-0.984375 0.46875,0 1.3945313,0.2226563 1.3945313,1.6289063 0,0.2695312 -0.035156,1.078125 -0.4570313,1.6875 -0.421875,0.6328125 -0.9140625,0.6796875 -1.3007812,0.6914062 z m 0,0"
       style="fill:#000000;fill-opacity:1;fill-rule:nonzero;stroke:none"
       aria-label="3"
       transform="matrix(1.3333333,0,0,1.3333333,68.044,41.321333)" />
    <path
       id="path22"
       d="M 1.29514,73.70099 H -1.29514"
       style="fill:none;stroke:#000000;stroke-width:0.79701;stroke-linecap:butt;stroke-linejoin:miter;stroke-miterlimit:10;stroke-dasharray:none;stroke-opacity:1"
       transform="matrix(1.3333333,0,0,-1.3333333,84.094667,108.85733)" />
    <path
       id="path23"
       d="m 5.1789141,-9.3404141 c 0,-0.2695312 0,-0.3398437 -0.1992188,-0.3398437 -0.1171875,0 -0.1640625,0 -0.28125,0.1640625 l -4.31249999,6.703125 v 0.421875 H 4.1593828 v 1.3007812 c 0,0.52734379 -0.023437,0.67968754 -1.078125,0.67968754 h -0.28125 V -5.703125e-4 C 3.1281328,-0.02400781 4.2648516,-0.02400781 4.6632891,-0.02400781 c 0.3984375,0 1.546875,0 1.875,0.0234374975 V -0.41072656 h -0.28125 c -1.03125,0 -1.078125,-0.15234375 -1.078125,-0.67968754 v -1.3007812 h 1.4414062 v -0.421875 H 5.1789141 Z m -0.9492188,1.125 v 5.4023438 H 0.74922656 Z m 0,0"
       style="fill:#000000;fill-opacity:1;fill-rule:nonzero;stroke:none"
       aria-label="4"
       transform="matrix(1.3333333,0,0,1.3333333,68.044,16.754667)" />
    <path
       id="path24"
       d="M 0,0 H 92.12625"
       style="fill:none;stroke:#ff9933;stroke-width:2.98883;stroke-linecap:butt;stroke-linejoin:miter;stroke-miterlimit:10;stroke-dasharray:none;stroke-opacity:1"
       transform="matrix(1.3333333,0,0,-1.3333333,84.094667,108.85733)" />
    <path
       id="path25"
       d="m 0,6.13545 18.42523,0.38713 18.42525,1.7136 9.21263,2.87416 7.36999,12.86081 1.65848,49.72984"
       style="fill:none;stroke:#000000;stroke-width:2.98883;stroke-linecap:butt;stroke-linejoin:miter;stroke-miterlimit:10;stroke-dasharray:none;stroke-opacity:1"
       transform="matrix(1.3333333,0,0,-1.3333333,84.094667,108.85733)" />
    <path
       id="path26"
       d="m 0,0 v 6.13545 l 18.42523,0.38713 18.42525,1.7136 9.21263,2.87416 7.36999,12.86081 1.65848,49.72984 h 0.18416 L 55.27574,0 Z"
       style="fill:#ccccff;fill-opacity:1;fill-rule:nonzero;stroke:none"
       transform="matrix(1.3333333,0,0,-1.3333333,84.094667,108.85733)" />
    <path
       id="path27"
       d="m 2.59029,6.13545 c 0,1.43059 -1.1597,2.59029 -2.59029,2.59029 -1.43059,0 -2.59029,-1.1597 -2.59029,-2.59029 0,-1.4306 1.1597,-2.5903 2.59029,-2.5903 1.43059,0 2.59029,1.1597 2.59029,2.5903 z"
       style="fill:#000000;fill-opacity:1;fill-rule:nonzero;stroke:#000000;stroke-width:0.79701;stroke-linecap:butt;stroke-linejoin:miter;stroke-miterlimit:10;stroke-dasharray:none;stroke-opacity:1"
       transform="matrix(1.3333333,0,0,-1.3333333,84.094667,108.85733)" />
    <path
       id="path28"
       d="m 21.01553,6.52258 c 0,1.43061 -1.1597,2.5903 -2.5903,2.5903 -1.4306,0 -2.5903,-1.15969 -2.5903,-2.5903 0,-1.4306 1.1597,-2.5903 2.5903,-2.5903 1.4306,0 2.5903,1.1597 2.5903,2.5903 z"
       style="fill:#000000;fill-opacity:1;fill-rule:nonzero;stroke:#000000;stroke-width:0.79701;stroke-linecap:butt;stroke-linejoin:miter;stroke-miterlimit:10;stroke-dasharray:none;stroke-opacity:1"
       transform="matrix(1.3333333,0,0,-1.3333333,84.094667,108.85733)" />
    <path
       id="path29"
       d="m 39.44078,8.23618 c 0,1.4306 -1.1597,2.5903 -2.5903,2.5903 -1.43059,0 -2.59028,-1.1597 -2.59028,-2.5903 0,-1.43059 1.15969,-2.59029 2.59028,-2.59029 1.4306,0 2.5903,1.1597 2.5903,2.59029 z"
       style="fill:#000000;fill-opacity:1;fill-rule:nonzero;stroke:#000000;stroke-width:0.79701;stroke-linecap:butt;stroke-linejoin:miter;stroke-miterlimit:10;stroke-dasharray:none;stroke-opacity:1"
       transform="matrix(1.3333333,0,0,-1.3333333,84.094667,108.85733)" />
    <path
       id="path30"
       d="m 48.65341,11.11034 c 0,1.4306 -1.1597,2.5903 -2.5903,2.5903 -1.43061,0 -2.5903,-1.1597 -2.5903,-2.5903 0,-1.43059 1.15969,-2.59029 2.5903,-2.59029 1.4306,0 2.5903,1.1597 2.5903,2.59029 z"
       style="fill:#000000;fill-opacity:1;fill-rule:nonzero;stroke:#000000;stroke-width:0.79701;stroke-linecap:butt;stroke-linejoin:miter;stroke-miterlimit:10;stroke-dasharray:none;stroke-opacity:1"
       transform="matrix(1.3333333,0,0,-1.3333333,84.094667,108.85733)" />
    <path
       id="path31"
       d="m 56.0234,23.97115 c 0,1.43058 -1.15969,2.59028 -2.5903,2.59028 -1.4306,0 -2.5903,-1.1597 -2.5903,-2.59028 0,-1.43061 1.1597,-2.59031 2.5903,-2.59031 1.43061,0 2.5903,1.1597 2.5903,2.59031 z"
       style="fill:#000000;fill-opacity:1;fill-rule:nonzero;stroke:#000000;stroke-width:0.79701;stroke-linecap:butt;stroke-linejoin:miter;stroke-miterlimit:10;stroke-dasharray:none;stroke-opacity:1"
       transform="matrix(1.3333333,0,0,-1.3333333,84.094667,108.85733)" />
    <path
       id="path32"
       d="M 0,-18.42523 V 73.70099"
       style="fill:none;stroke:#000000;stroke-width:0.99628;stroke-linecap:butt;stroke-linejoin:miter;stroke-miterlimit:10;stroke-dasharray:2.98883, 2.98883;stroke-dashoffset:0;stroke-opacity:1"
       transform="matrix(1.3333333,0,0,-1.3333333,84.094667,108.85733)" />
    <path
       id="path33"
       d="M 55.27574,-18.42523 V 73.70099"
       style="fill:none;stroke:#000000;stroke-width:0.99628;stroke-linecap:butt;stroke-linejoin:miter;stroke-miterlimit:10;stroke-dasharray:2.98883, 2.98883;stroke-dashoffset:0;stroke-opacity:1"
       transform="matrix(1.3333333,0,0,-1.3333333,84.094667,108.85733)" />
    <g
       id="g33"
       aria-label="f(x)"
       transform="matrix(0,-1.3333333,1.3333333,0,50.233333,71.617333)">
      <path
         id="path34"
         d="m 3.3516719,-3.5851562 h 0.8085937 c 0.1757813,0 0.2695313,0 0.2695313,-0.1640625 0,-0.1171875 -0.09375,-0.1171875 -0.2578125,-0.1171875 H 3.4102656 c 0.09375,-0.5390625 0.2226563,-1.265625 0.3398438,-1.7578125 0.082031,-0.3398438 0.2929687,-0.46875 0.46875,-0.46875 0.058594,0 0.2578125,0.011719 0.421875,0.1289062 -0.1875,0.035156 -0.4453125,0.1875 -0.4453125,0.4921875 0,0.2226563 0.1757812,0.3164063 0.3398437,0.3164063 0.2460938,0 0.4921875,-0.1992188 0.4921875,-0.5390625 0,-0.3984375 -0.3867187,-0.6210938 -0.8085937,-0.6210938 -0.4101563,0 -0.8085938,0.28125 -0.9960938,0.65625 -0.1992187,0.375 -0.2695312,0.7265625 -0.4570312,1.7929688 H 2.1212031 c -0.1640625,0 -0.2695312,0 -0.2695312,0.1640625 0,0.1171875 0.09375,0.1171875 0.2578125,0.1171875 h 0.609375 C 2.4610469,-2.284375 2.1563594,-0.49140625 1.9571406,0.434375 1.8516719,0.93828125 1.6993281,1.6179688 1.2774531,1.6179688 1.1368281,1.6179688 0.96104687,1.559375 0.86729687,1.4890625 1.0899531,1.4539063 1.3126094,1.2664063 1.3126094,0.996875 c 0,-0.22265625 -0.1640625,-0.328125 -0.33984378,-0.328125 -0.234375,0 -0.4921875,0.19921875 -0.4921875,0.5390625 0,0.4101563 0.41015625,0.6328125 0.79687498,0.6328125 0.9140625,0 1.3359375,-1.48828125 1.4765625,-2.26171875 z m 0,0"
         style="fill:#000000;fill-opacity:1;fill-rule:nonzero;stroke:none" />
      <path
         id="path35"
         d="m 8.5079219,2.1335938 c 0,-0.046875 -0.023437,-0.070312 -0.082031,-0.1289063 -1.1601565,-1.06640625 -1.511719,-2.671875 -1.511719,-4.2421875 0,-1.3945312 0.2695312,-3.0820312 1.5351562,-4.2773437 0.035156,-0.035156 0.058594,-0.070312 0.058594,-0.1054688 0,-0.070312 -0.046875,-0.1054687 -0.1054688,-0.1054687 -0.1054687,0 -0.9140625,0.6445312 -1.40625,1.6289062 -0.421875,0.8554688 -0.6445312,1.78125 -0.6445312,2.8476563 0,0.6445312 0.082031,1.66406245 0.5742187,2.7304687 0.5273438,1.1015625 1.3710938,1.7460938 1.4765625,1.7460938 0.058594,0 0.1054688,-0.035156 0.1054686,-0.09375 z m 0,0"
         style="fill:#000000;fill-opacity:1;fill-rule:nonzero;stroke:none" />
      <path
         id="path36"
         d="m 13.438586,-3.6203125 c -0.328125,0.058594 -0.421875,0.3515625 -0.421875,0.4804688 0,0.1757812 0.117187,0.328125 0.339844,0.328125 0.257812,0 0.503906,-0.2226563 0.503906,-0.5273438 0,-0.421875 -0.457031,-0.6210937 -0.878906,-0.6210937 -0.539063,0 -0.84375,0.46875 -0.949219,0.65625 -0.175781,-0.4335938 -0.574219,-0.65625 -0.996094,-0.65625 -0.960937,0 -1.4882811,1.1484375 -1.4882811,1.3828125 0,0.082031 0.070312,0.1054687 0.1289063,0.1054687 0.082031,0 0.1054687,-0.046875 0.1289062,-0.1054687 C 10.087023,-3.45625 10.672961,-3.7375 11.012805,-3.7375 c 0.257812,0 0.492187,0.1757813 0.492187,0.5859375 0,0.328125 -0.386719,1.7578125 -0.503906,2.19140625 -0.07031,0.28125 -0.339844,0.83203125 -0.832031,0.83203125 -0.1757816,0 -0.3632816,-0.0585938 -0.4570316,-0.1171875 0.2460938,-0.0351563 0.4218746,-0.24609375 0.4218746,-0.48046875 0,-0.22265625 -0.1640621,-0.32812495 -0.3398433,-0.32812495 -0.2578125,0 -0.4921875,0.23437495 -0.4921875,0.53906245 0,0.43359375 0.4804687,0.609375 0.8554688,0.609375 0.527344,0 0.832031,-0.421875 0.960937,-0.66796875 0.222657,0.59765625 0.761719,0.66796875 0.996094,0.66796875 0.972656,0 1.476563,-1.16015625 1.476563,-1.37109375 0,-0.046875 -0.02344,-0.1171875 -0.117188,-0.1171875 -0.09375,0 -0.105469,0.035156 -0.152344,0.1757813 -0.1875,0.6445312 -0.714843,1.0898437 -1.183593,1.0898437 -0.257813,0 -0.492188,-0.15234375 -0.492188,-0.5859375 0,-0.19921875 0.117188,-0.6914062 0.199219,-1.03125 0.03516,-0.1640625 0.28125,-1.1367187 0.292969,-1.1953125 0.117187,-0.3164062 0.386718,-0.796875 0.84375,-0.796875 0.152343,0 0.328125,0.023437 0.457031,0.1171875 z m 0,0"
         style="fill:#000000;fill-opacity:1;fill-rule:nonzero;stroke:none" />
      <path
         id="path37"
         d="m 16.927844,-2.2492187 c 0,-0.7382813 -0.105469,-1.7226563 -0.574219,-2.71875 -0.527344,-1.1015625 -1.359375,-1.7578125 -1.464844,-1.7578125 -0.09375,0 -0.117187,0.070312 -0.117187,0.1054687 0,0.035156 0.02344,0.070312 0.08203,0.1289063 0.527344,0.46875 1.511719,1.6875 1.511719,4.2421875 0,1.2773437 -0.234375,3.07031245 -1.535157,4.2773437 -0.02344,0.023437 -0.05859,0.058594 -0.05859,0.1054688 0,0.023437 0.02344,0.09375 0.117187,0.09375 0.105469,0 0.914063,-0.6445313 1.394531,-1.61718755 0.433594,-0.85546875 0.644532,-1.78124995 0.644532,-2.85937495 z m 0,0"
         style="fill:#000000;fill-opacity:1;fill-rule:nonzero;stroke:none" />
    </g>
    <path
       id="path38"
       d="m 4.4068203,-3.6211562 c -0.328125,0.058594 -0.421875,0.3515625 -0.421875,0.4804687 0,0.1757813 0.1171875,0.328125 0.3398438,0.328125 0.2578125,0 0.5039062,-0.2226562 0.5039062,-0.5273437 0,-0.421875 -0.4570312,-0.6210938 -0.8789062,-0.6210938 -0.5390625,0 -0.84375,0.46875 -0.9492188,0.65625 C 2.8247891,-3.7383437 2.4263516,-3.961 2.0044766,-3.961 c -0.9609375,0 -1.48828129,1.1484375 -1.48828129,1.3828125 0,0.082031 0.0703125,0.1054688 0.12890625,0.1054688 0.0820313,0 0.10546875,-0.046875 0.12890625,-0.1054688 0.28124999,-0.8789062 0.86718749,-1.1601562 1.20703129,-1.1601562 0.2578125,0 0.4921875,0.1757812 0.4921875,0.5859375 0,0.328125 -0.3867188,1.7578125 -0.5039063,2.1914062 -0.070312,0.28125 -0.3398437,0.83203125 -0.8320312,0.83203125 -0.17578129,0 -0.36328129,-0.0585938 -0.45703129,-0.1171875 C 0.92635156,-0.2813125 1.1021328,-0.49225 1.1021328,-0.726625 c 0,-0.22265625 -0.16406249,-0.328125 -0.33984374,-0.328125 -0.2578125,0 -0.4921875,0.234375 -0.4921875,0.5390625 0,0.43359375 0.48046875,0.609375 0.85546874,0.609375 0.5273438,0 0.8320313,-0.421875 0.9609375,-0.66796875 0.2226563,0.59765625 0.7617188,0.66796875 0.9960938,0.66796875 0.9726562,0 1.4765625,-1.1601562 1.4765625,-1.3710937 0,-0.046875 -0.023437,-0.1171875 -0.1171875,-0.1171875 -0.09375,0 -0.1054688,0.035156 -0.1523438,0.1757812 -0.1875,0.64453125 -0.7148437,1.08984375 -1.1835937,1.08984375 -0.2578125,0 -0.4921875,-0.15234375 -0.4921875,-0.5859375 0,-0.19921875 0.1171875,-0.69140625 0.1992187,-1.03124995 0.035156,-0.1640625 0.28125,-1.1367188 0.2929688,-1.1953125 0.1171875,-0.3164063 0.3867187,-0.796875 0.84375,-0.796875 0.1523437,0 0.328125,0.023437 0.4570312,0.1171875 z m 0,0"
       style="fill:#000000;fill-opacity:1;fill-rule:nonzero;stroke:none"
       aria-label="x"
       transform="matrix(1.3333333,0,0,1.3333333,129.74533,148.28133)" />
  </g>
</svg>
