<?xml version="1.0" encoding="UTF-8" standalone="no"?>
<!-- Created with Inkscape (http://www.inkscape.org/) -->

<svg
   version="1.1"
   id="svg1"
   width="247.60133"
   height="272.14133"
   viewBox="0 0 247.60133 272.14133"
   sodipodi:docname="Integral-1.svg"
   inkscape:version="1.3.2 (091e20e, 2023-11-25, custom)"
   inkscape:export-filename="Integral-1.png"
   inkscape:export-xdpi="300"
   inkscape:export-ydpi="300"
   xmlns:inkscape="http://www.inkscape.org/namespaces/inkscape"
   xmlns:sodipodi="http://sodipodi.sourceforge.net/DTD/sodipodi-0.dtd"
   xmlns="http://www.w3.org/2000/svg"
   xmlns:svg="http://www.w3.org/2000/svg">
  <defs
     id="defs1" />
  <sodipodi:namedview
     id="namedview1"
     pagecolor="#ffffff"
     bordercolor="#666666"
     borderopacity="1.0"
     inkscape:showpageshadow="2"
     inkscape:pageopacity="0.0"
     inkscape:pagecheckerboard="0"
     inkscape:deskcolor="#d1d1d1"
     showgrid="false"
     inkscape:zoom="2.8036903"
     inkscape:cx="123.76545"
     inkscape:cy="136.07066"
     inkscape:window-width="1920"
     inkscape:window-height="1001"
     inkscape:window-x="-9"
     inkscape:window-y="41"
     inkscape:window-maximized="1"
     inkscape:current-layer="g1">
    <inkscape:page
       x="0"
       y="0"
       inkscape:label="1"
       id="page1"
       width="247.60133"
       height="272.14133"
       margin="0"
       bleed="0" />
  </sodipodi:namedview>
  <g
     id="g1"
     inkscape:groupmode="layer"
     inkscape:label="1">
    <path
       id="path1"
       d="M 0,0 V 127.56061 H 127.56061 V 0 Z"
       style="fill:#f2f2f2;fill-opacity:1;fill-rule:nonzero;stroke:none"
       transform="matrix(1.3333333,0,0,-1.3333333,53.517333,219.78667)" />
    <path
       id="path2"
       d="M 0,0 H 127.56061 M 0,85.04042 H 127.56061 M 0,0 V 127.56061 M 85.04042,0 v 127.56061"
       style="fill:none;stroke:#999999;stroke-width:0.19925;stroke-linecap:butt;stroke-linejoin:miter;stroke-miterlimit:10;stroke-dasharray:none;stroke-opacity:1"
       transform="matrix(1.3333333,0,0,-1.3333333,53.517333,219.78667)" />
    <path
       id="path3"
       d="M 0,0 V 85.04042 L 0.8577,85.0365 1.71541,85.02223 2.57312,85.00015 3.43088,84.97032 4.28859,84.9327 5.1463,84.8834 6.00401,84.8289 6.86177,84.76273 7.71948,84.68875 8.5772,84.60698 l 0.8577,-0.09081 0.85776,-0.10124 0.85772,-0.10899 0.85771,-0.11807 0.85771,-0.12716 0.85774,-0.13494 0.85771,-0.14534 0.85771,-0.15316 0.85776,-0.16217 0.85771,-0.17257 0.85772,-0.18169 0.85771,-0.19074 0.85776,-0.19984 0.85771,-0.21019 0.85771,-0.21672 0.85771,-0.22968 0.85776,-0.23747 0.85771,-0.24653 0.85771,-0.25823 0.85771,-0.2673 0.85775,-0.2777 0.85771,-0.28675 0.85771,-0.29845 0.85771,-0.30624 0.85776,-0.31925 0.85771,-0.32959 0.85771,-0.33867 0.85776,-0.35036 0.85771,-0.36201 0.85771,-0.37373 0.85772,-0.38279 0.85775,-0.39576 0.85771,-0.40749 0.85772,-0.4178 0.85771,-0.43083 0.85774,-0.44374 0.85771,-0.45548 0.85771,-0.46713 0.85772,-0.48274 0.85775,-0.49309 0.85772,-0.50737 0.85771,-0.52164 0.85771,-0.53592 0.85776,-0.54887 0.85771,-0.56447 0.85771,-0.58005 0.85776,-0.5943 0.85771,-0.61116 0.85771,-0.62676 0.85771,-0.64364 0.85775,-0.65919 0.85771,-0.67993 0.85771,-0.6955 0.85771,-0.71501 0.85776,-0.73576 0.85771,-0.75391 0.85771,-0.77594 0.85771,-0.79805 0.85776,-0.8201 0.85771,-0.84215 0.85771,-0.86812 0.85772,-0.89273 0.85775,-0.91873 0.85772,-0.94724 0.85771,-0.97842 0.85774,-1.00694 0.85771,-1.0394 0.85771,-1.07571 0.85772,-1.11333 0.85775,-1.14969 0.85771,-1.19381 0.85772,-1.23794 0.85771,-1.28594 0.85775,-1.34042 0.85772,-1.39881 0.85771,-1.46112 0.85771,-1.52991 0.85776,-1.61162 0.85771,-1.69859 0.85771,-1.79979 0.8577,-1.91786 0.85776,-2.05542 0.85771,-2.22544 0.85771,-2.43298 0.85776,-2.70685 0.85771,-3.08442 0.85771,-3.65021 L 84.0568,12.89954 84.91455,4.62599 85.04042,0 Z"
       style="fill:#ccccff;fill-opacity:0.5;fill-rule:nonzero;stroke:none"
       transform="matrix(1.3333333,0,0,-1.3333333,53.517333,219.78667)" />
    <path
       id="path4"
       d="M 0,85.04042 0.8577,85.0365 1.71541,85.02223 2.57312,85.00015 3.43088,84.97032 4.28859,84.9327 5.1463,84.8834 6.00401,84.8289 6.86177,84.76273 7.71948,84.68875 8.5772,84.60698 l 0.8577,-0.09081 0.85776,-0.10124 0.85772,-0.10899 0.85771,-0.11807 0.85771,-0.12716 0.85774,-0.13494 0.85771,-0.14534 0.85771,-0.15316 0.85776,-0.16217 0.85771,-0.17257 0.85772,-0.18169 0.85771,-0.19074 0.85776,-0.19984 0.85771,-0.21019 0.85771,-0.21672 0.85771,-0.22968 0.85776,-0.23747 0.85771,-0.24653 0.85771,-0.25823 0.85771,-0.2673 0.85775,-0.2777 0.85771,-0.28675 0.85771,-0.29845 0.85771,-0.30624 0.85776,-0.31925 0.85771,-0.32959 0.85771,-0.33867 0.85776,-0.35036 0.85771,-0.36201 0.85771,-0.37373 0.85772,-0.38279 0.85775,-0.39576 0.85771,-0.40749 0.85772,-0.4178 0.85771,-0.43083 0.85774,-0.44374 0.85771,-0.45548 0.85771,-0.46713 0.85772,-0.48274 0.85775,-0.49309 0.85772,-0.50737 0.85771,-0.52164 0.85771,-0.53592 0.85776,-0.54887 0.85771,-0.56447 0.85771,-0.58005 0.85776,-0.5943 0.85771,-0.61116 0.85771,-0.62676 0.85771,-0.64364 0.85775,-0.65919 0.85771,-0.67993 0.85771,-0.6955 0.85771,-0.71501 0.85776,-0.73576 0.85771,-0.75391 0.85771,-0.77594 0.85771,-0.79805 0.85776,-0.8201 0.85771,-0.84215 0.85771,-0.86812 0.85772,-0.89273 0.85775,-0.91873 0.85772,-0.94724 0.85771,-0.97842 0.85774,-1.00694 0.85771,-1.0394 0.85771,-1.07571 0.85772,-1.11333 0.85775,-1.14969 0.85771,-1.19381 0.85772,-1.23794 0.85771,-1.28594 0.85775,-1.34042 0.85772,-1.39881 0.85771,-1.46112 0.85771,-1.52991 0.85776,-1.61162 0.85771,-1.69859 0.85771,-1.79979 0.8577,-1.91786 0.85776,-2.05542 0.85771,-2.22544 0.85771,-2.43298 0.85776,-2.70685 0.85771,-3.08442 0.85771,-3.65021 0.85772,-4.70384 0.85775,-8.27355"
       style="fill:none;stroke:#000000;stroke-width:2.98883;stroke-linecap:butt;stroke-linejoin:miter;stroke-miterlimit:10;stroke-dasharray:none;stroke-opacity:1"
       transform="matrix(1.3333333,0,0,-1.3333333,53.517333,219.78667)" />
    <path
       id="path5"
       d="M 42.52019,5.97766 V -5.97766"
       style="fill:none;stroke:#000000;stroke-width:0.79701;stroke-linecap:butt;stroke-linejoin:miter;stroke-miterlimit:10;stroke-dasharray:none;stroke-opacity:1"
       transform="matrix(1.3333333,0,0,-1.3333333,53.517333,219.78667)" />
    <g
       id="g5"
       aria-label="0.5"
       transform="matrix(1.3333333,0,0,1.3333333,98.244,245.04267)">
      <path
         id="path6"
         d="m 6.4205156,-4.5935234 c 0,-1.1835938 -0.070312,-2.34375 -0.5859375,-3.4335938 -0.5859375,-1.1953125 -1.6171875,-1.5117187 -2.3203125,-1.5117187 -0.8320312,0 -1.8515625,0.421875 -2.3789062,1.6054687 -0.41015627,0.9023438 -0.55078127,1.7929688 -0.55078127,3.3398438 0,1.3945312 0.10546875,2.4375 0.62109377,3.4570312 0.5625,1.08984376 1.546875,1.44140626 2.296875,1.44140626 1.2421875,0 1.9570312,-0.75 2.3789062,-1.58203126 0.515625,-1.078125 0.5390625,-2.484375 0.5390625,-3.3164062 z M 3.5025469,0.01194531 c -0.46875,0 -1.3945313,-0.2578125 -1.6640625,-1.81640621 -0.1640625,-0.8671875 -0.1640625,-1.9570313 -0.1640625,-2.953125 0,-1.1835938 0,-2.2382813 0.234375,-3.09375 0.2460937,-0.9609375 0.9726562,-1.3945313 1.59375,-1.3945313 0.5390625,0 1.3710937,0.328125 1.640625,1.5585938 0.1875,0.8203125 0.1875,1.9453125 0.1875,2.9296875 0,0.9609375 0,2.0507812 -0.1523438,2.9179687 -0.2695312,1.58203126 -1.1835937,1.85156251 -1.6757812,1.85156251 z m 0,0"
         style="fill:#000000;fill-opacity:1;fill-rule:nonzero;stroke:none" />
      <path
         id="path7"
         d="m 9.66075,-0.69117969 c 0,-0.41015621 -0.3398437,-0.70312501 -0.6914062,-0.70312501 -0.4101563,0 -0.703125,0.3515625 -0.703125,0.69140626 0,0.421875 0.3515625,0.7031250025 0.6914062,0.7031250025 0.421875,0 0.703125,-0.3398437525 0.703125,-0.6914062525 z m 0,0"
         style="fill:#000000;fill-opacity:1;fill-rule:nonzero;stroke:none" />
      <path
         id="path8"
         d="m 12.766219,-8.2146172 c 0.609375,0.1992188 1.113281,0.2109375 1.277344,0.2109375 1.617187,0 2.648437,-1.1953125 2.648437,-1.3945312 0,-0.058594 -0.02344,-0.1289063 -0.117187,-0.1289063 -0.02344,0 -0.05859,0 -0.1875,0.058594 -0.796875,0.3515625 -1.488282,0.3867187 -1.863282,0.3867187 -0.949218,0 -1.617187,-0.28125 -1.886718,-0.3984375 -0.105469,-0.046875 -0.128907,-0.046875 -0.152344,-0.046875 -0.105469,0 -0.105469,0.09375 -0.105469,0.3164063 v 4.265625 c 0,0.2578125 0,0.3398437 0.164063,0.3398437 0.07031,0 0.09375,-0.011719 0.234375,-0.1875 0.398437,-0.5859375 1.078125,-0.9257812 1.792968,-0.9257812 0.761719,0 1.136719,0.703125 1.242188,0.9375 0.246094,0.5625 0.257812,1.265625 0.257812,1.8164062 0,0.5390625 0,1.359375 -0.398437,2.00390626 -0.316406,0.515625 -0.878906,0.87890625 -1.5,0.87890625 -0.949219,0 -1.886719,-0.64453125 -2.144531,-1.69921871 0.07031,0.035156 0.164062,0.046875 0.234375,0.046875 0.246093,0 0.632812,-0.140625 0.632812,-0.6328125 0,-0.3984375 -0.28125,-0.6328125 -0.632812,-0.6328125 -0.257813,0 -0.632813,0.1289062 -0.632813,0.6914062 0,1.21875 0.972656,2.61328126 2.566406,2.61328126 1.617188,0 3.046875,-1.37109376 3.046875,-3.18749996 0,-1.7109375 -1.148437,-3.1289063 -2.660156,-3.1289063 -0.820312,0 -1.453125,0.3632813 -1.816406,0.7617188 z m 0,0"
         style="fill:#000000;fill-opacity:1;fill-rule:nonzero;stroke:none" />
    </g>
    <path
       id="path9"
       d="M 85.04042,5.97766 V -5.97766"
       style="fill:none;stroke:#000000;stroke-width:0.79701;stroke-linecap:butt;stroke-linejoin:miter;stroke-miterlimit:10;stroke-dasharray:none;stroke-opacity:1"
       transform="matrix(1.3333333,0,0,-1.3333333,53.517333,219.78667)" />
    <path
       id="path10"
       d="m 4.1357813,-9.1989922 c 0,-0.328125 0,-0.3398437 -0.2929688,-0.3398437 -0.3398437,0.3867187 -1.0664062,0.9140625 -2.5429687,0.9140625 v 0.421875 c 0.3398437,0 1.0546875,0 1.8398437,-0.375 v 7.4765625 c 0,0.51562496 -0.046875,0.69140621 -1.3007812,0.69140621 H 1.3935938 V 2.265625e-4 c 0.3867187,-0.0234375025 1.78125,-0.0234375025 2.25,-0.0234375025 0.46875,0 1.8515625,0 2.2382812,0.0234375025 V -0.40992969 H 5.4365625 c -1.265625,0 -1.3007812,-0.17578125 -1.3007812,-0.69140621 z m 0,0"
       style="fill:#000000;fill-opacity:1;fill-rule:nonzero;stroke:none"
       aria-label="1"
       transform="matrix(1.3333333,0,0,1.3333333,162.22,245.04267)" />
    <path
       id="path11"
       d="M 127.56061,5.97766 V -5.97766"
       style="fill:none;stroke:#000000;stroke-width:0.79701;stroke-linecap:butt;stroke-linejoin:miter;stroke-miterlimit:10;stroke-dasharray:none;stroke-opacity:1"
       transform="matrix(1.3333333,0,0,-1.3333333,53.517333,219.78667)" />
    <g
       id="g11"
       aria-label="1.5"
       transform="matrix(1.3333333,0,0,1.3333333,211.62933,245.04267)">
      <path
         id="path12"
         d="m 4.1363984,-9.1989922 c 0,-0.328125 0,-0.3398437 -0.2929687,-0.3398437 -0.3398438,0.3867187 -1.0664063,0.9140625 -2.5429688,0.9140625 v 0.421875 c 0.3398438,0 1.0546875,0 1.8398438,-0.375 v 7.4765625 c 0,0.51562496 -0.046875,0.69140621 -1.3007813,0.69140621 H 1.3942109 V 2.265625e-4 c 0.3867188,-0.0234375025 1.78125,-0.0234375025 2.25,-0.0234375025 0.46875,0 1.8515625,0 2.2382813,0.0234375025 V -0.40992969 H 5.4371797 c -1.265625,0 -1.3007813,-0.17578125 -1.3007813,-0.69140621 z m 0,0"
         style="fill:#000000;fill-opacity:1;fill-rule:nonzero;stroke:none" />
      <path
         id="path13"
         d="m 9.6617891,-0.69117969 c 0,-0.41015621 -0.3398438,-0.70312501 -0.6914063,-0.70312501 -0.4101562,0 -0.703125,0.3515625 -0.703125,0.69140626 0,0.421875 0.3515625,0.7031250025 0.6914063,0.7031250025 0.421875,0 0.703125,-0.3398437525 0.703125,-0.6914062525 z m 0,0"
         style="fill:#000000;fill-opacity:1;fill-rule:nonzero;stroke:none" />
      <path
         id="path14"
         d="m 12.767258,-8.2146172 c 0.609375,0.1992188 1.113281,0.2109375 1.277344,0.2109375 1.617187,0 2.648437,-1.1953125 2.648437,-1.3945312 0,-0.058594 -0.02344,-0.1289063 -0.117187,-0.1289063 -0.02344,0 -0.05859,0 -0.1875,0.058594 -0.796875,0.3515625 -1.488282,0.3867187 -1.863282,0.3867187 -0.949218,0 -1.617187,-0.28125 -1.886718,-0.3984375 -0.105469,-0.046875 -0.128907,-0.046875 -0.152344,-0.046875 -0.105469,0 -0.105469,0.09375 -0.105469,0.3164063 v 4.265625 c 0,0.2578125 0,0.3398437 0.164063,0.3398437 0.07031,0 0.09375,-0.011719 0.234375,-0.1875 0.398437,-0.5859375 1.078125,-0.9257812 1.792968,-0.9257812 0.761719,0 1.136719,0.703125 1.242188,0.9375 0.246094,0.5625 0.257812,1.265625 0.257812,1.8164062 0,0.5390625 0,1.359375 -0.398437,2.00390626 -0.316406,0.515625 -0.878906,0.87890625 -1.5,0.87890625 -0.949219,0 -1.886719,-0.64453125 -2.144531,-1.69921871 0.07031,0.035156 0.164062,0.046875 0.234375,0.046875 0.246093,0 0.632812,-0.140625 0.632812,-0.6328125 0,-0.3984375 -0.28125,-0.6328125 -0.632812,-0.6328125 -0.257813,0 -0.632813,0.1289062 -0.632813,0.6914062 0,1.21875 0.972656,2.61328126 2.566406,2.61328126 1.617188,0 3.046875,-1.37109376 3.046875,-3.18749996 0,-1.7109375 -1.148437,-3.1289063 -2.660156,-3.1289063 -0.820312,0 -1.453125,0.3632813 -1.816406,0.7617188 z m 0,0"
         style="fill:#000000;fill-opacity:1;fill-rule:nonzero;stroke:none" />
    </g>
    <path
       id="path15"
       d="M 5.97766,42.52019 H -5.97766"
       style="fill:none;stroke:#000000;stroke-width:0.79701;stroke-linecap:butt;stroke-linejoin:miter;stroke-miterlimit:10;stroke-dasharray:none;stroke-opacity:1"
       transform="matrix(1.3333333,0,0,-1.3333333,53.517333,219.78667)" />
    <g
       id="g15"
       aria-label="0.5"
       transform="matrix(1.3333333,0,0,1.3333333,16.656,169.25733)">
      <path
         id="path16"
         d="m 6.4220625,-4.5933906 c 0,-1.1835938 -0.070312,-2.34375 -0.5859375,-3.4335938 -0.5859375,-1.1953125 -1.6171875,-1.5117187 -2.3203125,-1.5117187 -0.8320313,0 -1.8515625,0.421875 -2.3789063,1.6054687 -0.4101562,0.9023438 -0.5507812,1.7929688 -0.5507812,3.3398438 0,1.3945312 0.10546875,2.4375 0.6210937,3.4570312 0.5625,1.08984378 1.546875,1.44140628 2.296875,1.44140628 1.2421875,0 1.9570313,-0.75 2.3789063,-1.58203128 0.515625,-1.078125 0.5390625,-2.484375 0.5390625,-3.3164062 z M 3.5040937,0.01207813 c -0.46875,0 -1.3945312,-0.2578125 -1.6640625,-1.81640623 -0.1640625,-0.8671875 -0.1640625,-1.9570313 -0.1640625,-2.953125 0,-1.1835938 0,-2.2382813 0.234375,-3.09375 0.2460938,-0.9609375 0.9726563,-1.3945313 1.59375,-1.3945313 0.5390625,0 1.3710938,0.328125 1.640625,1.5585938 0.1875,0.8203125 0.1875,1.9453125 0.1875,2.9296875 0,0.9609375 0,2.0507812 -0.1523437,2.9179687 -0.2695313,1.58203128 -1.1835938,1.85156253 -1.6757813,1.85156253 z m 0,0"
         style="fill:#000000;fill-opacity:1;fill-rule:nonzero;stroke:none" />
      <path
         id="path17"
         d="m 9.6593672,-0.69104687 c 0,-0.41015623 -0.3398438,-0.70312503 -0.6914063,-0.70312503 -0.4101562,0 -0.703125,0.3515625 -0.703125,0.69140628 0,0.421875 0.3515625,0.703124995 0.6914063,0.703124995 0.421875,0 0.703125,-0.339843745 0.703125,-0.691406245 z m 0,0"
         style="fill:#000000;fill-opacity:1;fill-rule:nonzero;stroke:none" />
      <path
         id="path18"
         d="m 12.764836,-8.2144844 c 0.609375,0.1992188 1.113281,0.2109375 1.277344,0.2109375 1.617187,0 2.648437,-1.1953125 2.648437,-1.3945312 0,-0.058594 -0.02344,-0.1289063 -0.117187,-0.1289063 -0.02344,0 -0.05859,0 -0.1875,0.058594 -0.796875,0.3515625 -1.488282,0.3867187 -1.863282,0.3867187 -0.949218,0 -1.617187,-0.28125 -1.886718,-0.3984375 -0.105469,-0.046875 -0.128907,-0.046875 -0.152344,-0.046875 -0.105469,0 -0.105469,0.09375 -0.105469,0.3164063 v 4.265625 c 0,0.2578125 0,0.3398437 0.164063,0.3398437 0.07031,0 0.09375,-0.011719 0.234375,-0.1875 0.398437,-0.5859375 1.078125,-0.9257812 1.792968,-0.9257812 0.761719,0 1.136719,0.703125 1.242188,0.9375 0.246094,0.5625 0.257812,1.265625 0.257812,1.8164062 0,0.5390625 0,1.359375 -0.398437,2.00390628 -0.316406,0.515625 -0.878906,0.87890625 -1.5,0.87890625 -0.949219,0 -1.886719,-0.64453125 -2.144531,-1.69921873 0.07031,0.035156 0.164062,0.046875 0.234375,0.046875 0.246093,0 0.632812,-0.140625 0.632812,-0.6328125 0,-0.3984375 -0.28125,-0.6328125 -0.632812,-0.6328125 -0.257813,0 -0.632813,0.1289062 -0.632813,0.6914062 0,1.21875 0.972656,2.61328128 2.566406,2.61328128 1.617188,0 3.046875,-1.37109378 3.046875,-3.18749998 0,-1.7109375 -1.148437,-3.1289063 -2.660156,-3.1289063 -0.820312,0 -1.453125,0.3632813 -1.816406,0.7617188 z m 0,0"
         style="fill:#000000;fill-opacity:1;fill-rule:nonzero;stroke:none" />
    </g>
    <path
       id="path19"
       d="M 5.97766,85.04042 H -5.97766"
       style="fill:none;stroke:#000000;stroke-width:0.79701;stroke-linecap:butt;stroke-linejoin:miter;stroke-miterlimit:10;stroke-dasharray:none;stroke-opacity:1"
       transform="matrix(1.3333333,0,0,-1.3333333,53.517333,219.78667)" />
    <path
       id="path20"
       d="m 4.1357109,-9.2003437 c 0,-0.328125 0,-0.3398438 -0.2929687,-0.3398438 -0.3398438,0.3867188 -1.0664063,0.9140625 -2.5429688,0.9140625 v 0.421875 c 0.3398438,0 1.0546875,0 1.8398438,-0.375 v 7.4765625 c 0,0.515625 -0.046875,0.69140625 -1.3007813,0.69140625 H 1.3935234 V -0.001125 c 0.3867188,-0.0234375 1.78125,-0.0234375 2.25,-0.0234375 0.46875,0 1.8515625,0 2.2382813,0.0234375 V -0.41128125 H 5.4364922 c -1.265625,0 -1.3007813,-0.17578125 -1.3007813,-0.69140625 z m 0,0"
       style="fill:#000000;fill-opacity:1;fill-rule:nonzero;stroke:none"
       aria-label="1"
       transform="matrix(1.3333333,0,0,1.3333333,31.224,112.564)" />
    <path
       id="path21"
       d="M 5.97766,127.56061 H -5.97766"
       style="fill:none;stroke:#000000;stroke-width:0.79701;stroke-linecap:butt;stroke-linejoin:miter;stroke-miterlimit:10;stroke-dasharray:none;stroke-opacity:1"
       transform="matrix(1.3333333,0,0,-1.3333333,53.517333,219.78667)" />
    <g
       id="g21"
       aria-label="1.5"
       transform="matrix(1.3333333,0,0,1.3333333,16.656,55.872)">
      <path
         id="path22"
         d="m 4.1369062,-9.1998984 c 0,-0.328125 0,-0.3398438 -0.2929687,-0.3398438 -0.3398438,0.3867188 -1.0664063,0.9140625 -2.5429688,0.9140625 v 0.421875 c 0.3398438,0 1.0546875,0 1.8398438,-0.375 v 7.4765625 c 0,0.51562501 -0.046875,0.69140626 -1.3007813,0.69140626 H 1.3947187 v 0.4101562525 c 0.3867188,-0.0234375025 1.78125,-0.0234375025 2.25,-0.0234375025 0.46875,0 1.8515625,0 2.2382813,0.0234375025 V -0.41083594 H 5.4376875 c -1.265625,0 -1.3007813,-0.17578125 -1.3007813,-0.69140626 z m 0,0"
         style="fill:#000000;fill-opacity:1;fill-rule:nonzero;stroke:none" />
      <path
         id="path23"
         d="m 9.6593672,-0.69208594 c 0,-0.41015626 -0.3398438,-0.70312496 -0.6914063,-0.70312496 -0.4101562,0 -0.703125,0.3515625 -0.703125,0.69140621 0,0.421875 0.3515625,0.7031250025 0.6914063,0.7031250025 0.421875,0 0.703125,-0.3398437525 0.703125,-0.6914062525 z m 0,0"
         style="fill:#000000;fill-opacity:1;fill-rule:nonzero;stroke:none" />
      <path
         id="path24"
         d="m 12.764836,-8.2155234 c 0.609375,0.1992187 1.113281,0.2109375 1.277344,0.2109375 1.617187,0 2.648437,-1.1953125 2.648437,-1.3945313 0,-0.058594 -0.02344,-0.1289062 -0.117187,-0.1289062 -0.02344,0 -0.05859,0 -0.1875,0.058594 -0.796875,0.3515625 -1.488282,0.3867188 -1.863282,0.3867188 -0.949218,0 -1.617187,-0.28125 -1.886718,-0.3984375 -0.105469,-0.046875 -0.128907,-0.046875 -0.152344,-0.046875 -0.105469,0 -0.105469,0.09375 -0.105469,0.3164062 v 4.265625 c 0,0.2578125 0,0.3398438 0.164063,0.3398438 0.07031,0 0.09375,-0.011719 0.234375,-0.1875 0.398437,-0.5859375 1.078125,-0.9257813 1.792968,-0.9257813 0.761719,0 1.136719,0.703125 1.242188,0.9375 0.246094,0.5625 0.257812,1.265625 0.257812,1.8164063 0,0.5390625 0,1.359375 -0.398437,2.00390621 -0.316406,0.515625 -0.878906,0.87890625 -1.5,0.87890625 -0.949219,0 -1.886719,-0.64453125 -2.144531,-1.69921876 0.07031,0.035156 0.164062,0.046875 0.234375,0.046875 0.246093,0 0.632812,-0.140625 0.632812,-0.6328125 0,-0.3984375 -0.28125,-0.6328125 -0.632812,-0.6328125 -0.257813,0 -0.632813,0.1289063 -0.632813,0.6914063 0,1.21875 0.972656,2.61328121 2.566406,2.61328121 1.617188,0 3.046875,-1.37109371 3.046875,-3.18750001 0,-1.7109375 -1.148437,-3.1289062 -2.660156,-3.1289062 -0.820312,0 -1.453125,0.3632812 -1.816406,0.7617187 z m 0,0"
         style="fill:#000000;fill-opacity:1;fill-rule:nonzero;stroke:none" />
    </g>
    <path
       id="path25"
       d="M 0,0 H 140.1848"
       style="fill:none;stroke:#000000;stroke-width:1.99255;stroke-linecap:butt;stroke-linejoin:miter;stroke-miterlimit:10;stroke-dasharray:none;stroke-opacity:1"
       transform="matrix(1.3333333,0,0,-1.3333333,53.517333,219.78667)" />
    <path
       id="path26"
       d="M 4.38364,0 -2.63017,3.50691 0,0 -2.63017,-3.50691"
       style="fill:#000000;fill-opacity:1;fill-rule:nonzero;stroke:none"
       transform="matrix(1.3333333,0,0,-1.3333333,240.4304,219.78667)" />
    <path
       id="path27"
       d="M 0,0 V 140.1848"
       style="fill:none;stroke:#000000;stroke-width:1.99255;stroke-linecap:butt;stroke-linejoin:miter;stroke-miterlimit:10;stroke-dasharray:none;stroke-opacity:1"
       transform="matrix(1.3333333,0,0,-1.3333333,53.517333,219.78667)" />
    <path
       id="path28"
       d="M 4.38364,0 -2.63017,3.50691 0,0 -2.63017,-3.50691"
       style="fill:#000000;fill-opacity:1;fill-rule:nonzero;stroke:none"
       transform="matrix(0,-1.3333333,-1.3333333,0,53.517333,32.8736)" />
    <path
       id="path29"
       d="m 4.4997891,-3.4573672 c 0.011719,-0.035156 0.023437,-0.09375 0.023437,-0.1523437 0,-0.1054688 -0.082031,-0.2578125 -0.2695313,-0.2578125 -0.1171875,0 -0.28125,0.070312 -0.3515625,0.2460937 -0.011719,0.035156 -0.1054687,0.3984375 -0.1523437,0.5976563 l -0.4453125,1.7929687 c -0.082031,0.25781251 -0.082031,0.28125001 -0.09375,0.36328126 -0.011719,0.0351563 -0.3867188,0.73828125 -1.03125,0.73828125 -0.5625,0 -0.5625,-0.5625 -0.5625,-0.7265625 0,-0.41015621 0.1171875,-0.84375001 0.5039062,-1.85156251 0.070312,-0.2109375 0.1289063,-0.328125 0.1289063,-0.5039062 0,-0.4335938 -0.328125,-0.75 -0.7734375,-0.75 -0.85546879,0 -1.21875004,1.2773437 -1.21875004,1.3828125 0,0.082031 0.0703125,0.1054687 0.12890625,0.1054687 0.09375,0 0.10546875,-0.058594 0.140625,-0.1757812 0.1875,-0.65625 0.55078129,-1.0898438 0.92578129,-1.0898438 0.2109375,0 0.2109375,0.1757813 0.2109375,0.2929688 0,0.1523437 -0.035156,0.3164062 -0.1171875,0.5273437 -0.421875,1.1132813 -0.5390625,1.4882813 -0.5390625,1.92187501 0,0.9960937525 0.8085937,1.08984375 1.1484375,1.08984375 0.4335937,0 0.75,-0.22265625 0.9140625,-0.38671875 -0.117187,0.45703125 -0.2226558,0.85546875 -0.5742183,1.30078129 -0.2695312,0.3632812 -0.6210937,0.609375 -1.0195312,0.609375 -0.2460938,0 -0.53906254,-0.09375 -0.66796879,-0.3398438 0.46874999,0 0.53906249,-0.39843749 0.53906249,-0.49218749 0,-0.19921875 -0.140625,-0.31640625 -0.3398437,-0.31640625 -0.22265629,0 -0.50390629,0.1640625 -0.50390629,0.58593754 0,0.4570312 0.41015625,0.7851562 0.97265629,0.7851562 0.9140625,0 1.8984375,-0.7851562 2.15625,-1.82812499 z m 0,0"
       style="fill:#000000;fill-opacity:1;fill-rule:nonzero;stroke:none"
       aria-label="y"
       transform="matrix(0,-1.3333333,1.3333333,0,9.5746667,137.988)" />
    <path
       id="path30"
       d="m 4.4069141,-3.6199609 c -0.328125,0.058594 -0.421875,0.3515625 -0.421875,0.4804687 0,0.1757813 0.1171875,0.328125 0.3398437,0.328125 0.2578125,0 0.5039063,-0.2226562 0.5039063,-0.5273437 0,-0.421875 -0.4570313,-0.6210938 -0.8789063,-0.6210938 -0.5390625,0 -0.84375,0.46875 -0.9492187,0.65625 -0.1757813,-0.4335937 -0.5742188,-0.65625 -0.9960938,-0.65625 -0.9609375,0 -1.48828124,1.1484375 -1.48828124,1.3828125 0,0.082031 0.0703125,0.1054688 0.12890625,0.1054688 0.0820313,0 0.10546875,-0.046875 0.12890625,-0.1054688 0.28125004,-0.8789062 0.86718754,-1.1601562 1.20703124,-1.1601562 0.2578125,0 0.4921875,0.1757812 0.4921875,0.5859375 0,0.328125 -0.3867187,1.7578125 -0.5039062,2.19140621 -0.070312,0.28125 -0.3398438,0.83203125 -0.8320313,0.83203125 -0.17578124,0 -0.36328124,-0.0585938 -0.45703124,-0.1171875 0.24609375,-0.0351563 0.42187504,-0.24609375 0.42187504,-0.48046875 0,-0.22265625 -0.16406254,-0.32812501 -0.33984379,-0.32812501 -0.2578125,0 -0.4921875,0.23437501 -0.4921875,0.53906251 0,0.43359375 0.48046875,0.609375 0.85546879,0.609375 0.5273437,0 0.8320312,-0.421875 0.9609375,-0.66796875 0.2226562,0.59765625 0.7617187,0.66796875 0.9960937,0.66796875 0.9726563,0 1.4765625,-1.16015621 1.4765625,-1.37109371 0,-0.046875 -0.023437,-0.1171875 -0.1171875,-0.1171875 -0.09375,0 -0.1054687,0.035156 -0.1523437,0.1757812 -0.1875,0.64453126 -0.7148438,1.08984376 -1.1835938,1.08984376 -0.2578125,0 -0.4921875,-0.15234375 -0.4921875,-0.5859375 0,-0.19921875 0.1171875,-0.69140626 0.1992188,-1.03124996 0.035156,-0.1640625 0.28125,-1.1367188 0.2929687,-1.1953125 0.1171875,-0.3164063 0.3867188,-0.796875 0.84375,-0.796875 0.1523438,0 0.328125,0.023437 0.4570313,0.1171875 z m 0,0"
       style="fill:#000000;fill-opacity:1;fill-rule:nonzero;stroke:none"
       aria-label="x"
       transform="matrix(1.3333333,0,0,1.3333333,135.07333,267.71333)" />
    <g
       id="g30"
       aria-label="´&#10;Area=&#10;R&#10;1&#10;0&#10;√"
       transform="matrix(1.3333333,0,0,1.3333333,49.857333,17.710667)">
      <path
         id="path31"
         d="m 6.3970391,-9.5505781 c 0.070312,-0.058594 0.1523437,-0.1289063 0.1523437,-0.2226563 0,-0.1757812 -0.1523437,-0.1757812 -0.3867187,-0.1757812 h -1.171875 c -0.2929688,0 -0.3046875,0.011719 -0.4335938,0.1640625 l -1.2304687,1.6757812 c -0.1289063,0.1640625 -0.1289063,0.1875 -0.1289063,0.2226563 0,0.1875 0.1523438,0.1875 0.3867188,0.1875 h 0.5273437 z m -0.9169922,3.5976562 c -0.2109375,-0.609375 -0.6328125,-0.609375 -0.9140625,-0.609375 h -1.265625 c -0.28125,0 -0.703125,0 -0.9140625,0.609375 l -3.02343753,8.6601563 c -0.0820313,0.1875 -0.0820313,0.2226562 -0.0820313,0.2929687 0,0.3867188 0.36328125,0.3867188 0.5625,0.3867188 h 0.515625 c 0.2578125,0 0.70312493,0 0.90234373,-0.5742188 l 0.5625,-1.59375 H 5.796453 L 6.2886405,2.6017656 C 6.452703,3.1056719 6.5581718,3.3869219 7.249578,3.3869219 h 0.7734376 c 0.1992188,0 0.5625,0 0.5625,-0.3867188 0,-0.070312 0,-0.1054687 -0.082031,-0.2929687 z m -2.1914063,2.8945313 c 0.2109375,-0.6210938 0.3984375,-1.171875 0.515625,-1.6875 h 0.011719 c 0.070312,0.3398437 0.070312,0.375 0.1875,0.703125 l 1.359375,4.03124997 h -3.105469 z m 8.6923824,3.14062497 c 0,-1.35937497 1.136719,-1.92187497 2.039063,-1.96874997 0.257812,-0.023437 0.292969,-0.023437 0.292969,-0.3867188 v -0.6796875 c 0,-0.28125 0,-0.3867187 -0.257813,-0.3867187 -0.410156,0 -1.453125,0.140625 -2.121094,1.6875 h -0.02344 v -0.9257813 c 0,-0.4570312 -0.09375,-0.6914062 -0.679688,-0.6914062 h -0.46875 c -0.515625,0 -0.679687,0.1640625 -0.679687,0.6914062 v 5.2734375 c 0,0.515625 0.152344,0.6914063 0.679687,0.6914063 h 0.539063 c 0.539062,0 0.679687,-0.1875 0.679687,-0.6914063 z m 8.750977,0.234375 c 0.328125,0 0.679687,-0.0117188 0.679687,-0.65625 0,-1.85156247 -0.855468,-3.08203127 -3,-3.08203127 -2.285156,0 -3.421875,1.2890625 -3.421875,3.46875002 0,2.35546878 1.359375,3.49218748 3.609375,3.49218748 0.550782,0 1.371094,-0.070312 2.308594,-0.5390625 0.316406,-0.1640625 0.421875,-0.1992187 0.421875,-0.375 0,-0.09375 -0.04687,-0.515625 -0.05859,-0.6328125 -0.05859,-0.4453125 -0.07031,-0.4570312 -0.199218,-0.4570312 -0.05859,0 -0.08203,0 -0.246094,0.140625 -0.84375,0.7382812 -1.710938,0.8320312 -2.167969,0.8320312 -1.617187,0 -1.792969,-1.2773437 -1.828125,-2.19140623 z m -3.890625,-0.76171875 c 0.04687,-0.86718752 0.328125,-1.94531252 1.570312,-1.94531252 1.148438,0 1.371094,0.8320313 1.40625,1.94531252 z M 28.533758,-1.1482344 c 0,-2.2617187 -2.179688,-2.2734375 -2.894531,-2.2734375 -0.679688,0 -1.394532,0.046875 -2.355469,0.4570313 -0.304688,0.1289062 -0.375,0.1640625 -0.375,0.328125 0,0.09375 0.08203,0.9257812 0.105469,1.0429687 0.01172,0.09375 0.08203,0.1640625 0.1875,0.1640625 0.07031,0 0.105468,-0.046875 0.152343,-0.09375 0.621094,-0.6445312 1.335938,-0.9609375 2.226563,-0.9609375 0.773437,0 0.996094,0.4804688 0.996094,1.3242188 v 0.50390622 c -0.492188,0 -4.253907,0.0234375 -4.253907,2.13281248 0,1.0078125 0.796875,2.0625 2.0625,2.0625 0.492188,0 1.570313,-0.140625 2.238282,-1.125 v 0.28125 c 0,0.4570313 0.105468,0.6914063 0.691406,0.6914063 h 0.527344 c 0.550781,0 0.691406,-0.1875 0.691406,-0.6914063 z m -1.957031,2.3320313 c 0,1.3242187 -1.359375,1.3242187 -1.394532,1.3242187 -0.609375,0 -0.996093,-0.515625 -0.996093,-1.0546875 0,-1.40624998 1.992187,-1.51171873 2.390625,-1.52343748 z m 18.711914,-2.4257813 c 0.164062,0 0.773437,0 0.773437,-0.609375 0,-0.5976562 -0.621094,-0.5976562 -0.761719,-0.5976562 h -8.988281 c -0.152344,0 -0.761719,0 -0.761719,0.5976562 0,0.609375 0.609375,0.609375 0.773438,0.609375 z m 0.01172,3.2929688 c 0.140625,0 0.761719,0 0.761719,-0.5976563 0,-0.60937498 -0.621094,-0.60937498 -0.773437,-0.60937498 h -8.964844 c -0.175781,0 -0.773438,0 -0.773438,0.60937498 0,0.5976563 0.609375,0.5976563 0.761719,0.5976563 z m 0,0"
         style="fill:#000000;fill-opacity:1;fill-rule:nonzero;stroke:none" />
      <path
         id="path32"
         d="m 54.909734,3.0324297 c -0.128906,1.6289062 -0.480468,2.0859375 -1.054687,2.0859375 -0.128906,0 -0.421875,-0.035156 -0.632813,-0.2109375 0.28125,-0.046875 0.363282,-0.2695313 0.363282,-0.4101563 0,-0.2929687 -0.222657,-0.421875 -0.410157,-0.421875 -0.199218,0 -0.410156,0.1289063 -0.410156,0.4335938 0,0.4804687 0.492188,0.8203125 1.089844,0.8203125 0.949219,0 1.429687,-0.8671875 1.640625,-1.7578125 0.128906,-0.515625 0.492187,-3.42187501 0.574219,-4.52343751 l 0.1875,-2.48437499 c 0.140625,-1.828125 0.480468,-2.0742188 0.925781,-2.0742188 0.105469,0 0.410156,0.011719 0.632812,0.2109375 -0.292968,0.035156 -0.375,0.2695313 -0.375,0.3984375 0,0.2929688 0.222657,0.421875 0.410157,0.421875 0.199218,0 0.421875,-0.1289062 0.421875,-0.421875 0,-0.4804687 -0.503907,-0.8320312 -1.101563,-0.8320312 -0.949219,0 -1.335937,0.9609375 -1.5,1.7226562 -0.117187,0.5507813 -0.480469,3.36328129 -0.574219,4.55859379 z m 0,0"
         style="fill:#000000;fill-opacity:1;fill-rule:nonzero;stroke:none" />
      <path
         id="path33"
         d="m 61.776922,-8.2615156 c 0,-0.234375 0,-0.2578125 -0.234375,-0.2578125 -0.609375,0.6328125 -1.488281,0.6328125 -1.804688,0.6328125 v 0.3164062 c 0.199219,0 0.785157,0 1.300782,-0.2578125 v 5.15625 c 0,0.3515625 -0.03516,0.4804688 -0.925782,0.4804688 h -0.316406 v 0.3046875 c 0.351563,-0.035156 1.207031,-0.035156 1.605469,-0.035156 0.398437,0 1.265625,0 1.617187,0.035156 v -0.3046875 h -0.316406 c -0.902344,0 -0.925781,-0.1171875 -0.925781,-0.4804688 z m -0.28711,12.008789 c 0,-0.796875 -0.04687,-1.59375 -0.398437,-2.3320312 -0.457031,-0.96093751 -1.277344,-1.11328126 -1.6875,-1.11328126 -0.597656,0 -1.335938,0.2578125 -1.734375,1.18359376 -0.328125,0.6914062 -0.375,1.4648437 -0.375,2.2617187 0,0.75 0.04687,1.640625 0.445312,2.4023438 0.433594,0.8085937 1.160157,1.0078125 1.652344,1.0078125 0.539063,0 1.289063,-0.2109375 1.734375,-1.1601563 0.316406,-0.6914062 0.363281,-1.4648437 0.363281,-2.25 z m -2.097656,3.1875 c -0.386719,0 -0.984375,-0.2460937 -1.160156,-1.2070312 -0.105469,-0.5976563 -0.105469,-1.5117188 -0.105469,-2.0976563 0,-0.6445312 0,-1.3007812 0.08203,-1.8398437 0.1875,-1.18359376 0.925782,-1.26562501 1.183594,-1.26562501 0.328125,0 0.984375,0.17578125 1.171875,1.16015621 0.09375,0.5625 0.09375,1.3125 0.09375,1.9453125 0,0.75 0,1.4179688 -0.105469,2.0625 -0.152343,0.9375 -0.714843,1.2421875 -1.160155,1.2421875 z m 0,0"
         style="fill:#000000;fill-opacity:1;fill-rule:nonzero;stroke:none" />
      <path
         id="path34"
         d="M 72.2945,3.8380937 69.774969,-1.75175 c -0.105469,-0.2226563 -0.175782,-0.2226563 -0.222657,-0.2226563 -0.01172,0 -0.08203,0 -0.234375,0.1171875 l -1.371093,1.03125005 c -0.1875,0.140625 -0.1875,0.1875 -0.1875,0.22265625 0,0.0703125 0.04687,0.1640625 0.152343,0.1640625 0.08203,0 0.328125,-0.19921875 0.480469,-0.31640625 0.09375,-0.0703125 0.304688,-0.234375 0.457031,-0.35156255 l 2.835938,6.2109375 c 0.09375,0.234375 0.164062,0.234375 0.292969,0.234375 0.222656,0 0.257812,-0.082031 0.363281,-0.28125 L 78.857,-8.4314375 c 0.09375,-0.1992188 0.09375,-0.2578125 0.09375,-0.28125 0,-0.1523438 -0.117188,-0.2929688 -0.28125,-0.2929688 -0.117188,0 -0.222656,0.070312 -0.339844,0.3046875 z m 0,0"
         style="fill:#000000;fill-opacity:1;fill-rule:nonzero;stroke:none" />
    </g>
    <path
       id="path35"
       d="M 0,0 H 38.02"
       style="fill:none;stroke:#000000;stroke-width:0.574;stroke-linecap:butt;stroke-linejoin:miter;stroke-miterlimit:10;stroke-dasharray:none;stroke-opacity:1"
       transform="matrix(1.3333333,0,0,-1.3333333,154.752,6.0853333)" />
    <g
       id="g35"
       aria-label="1−x&#10;2&#10;dx"
       transform="matrix(1.3333333,0,0,1.3333333,154.752,22.228)">
      <path
         id="path36"
         d="m 4.1381484,-9.2002969 c 0,-0.328125 0,-0.3398437 -0.2929687,-0.3398437 -0.3398438,0.3867187 -1.0664063,0.9140625 -2.5429688,0.9140625 v 0.421875 c 0.3398438,0 1.0546875,0 1.8398438,-0.375 v 7.4765625 c 0,0.51562497 -0.046875,0.69140622 -1.3007813,0.69140622 H 1.3959609 v 0.41015625 c 0.3867188,-0.0234375 1.78125,-0.0234375 2.25,-0.0234375 0.46875,0 1.8515625,0 2.2382813,0.0234375 V -0.41123438 H 5.4389297 c -1.265625,0 -1.3007813,-0.17578125 -1.3007813,-0.69140622 z m 0,0"
         style="fill:#000000;fill-opacity:1;fill-rule:nonzero;stroke:none" />
      <path
         id="path37"
         d="m 19.668422,-3.3057656 c 0.234375,0 0.492187,0 0.492187,-0.28125 0,-0.28125 -0.257812,-0.28125 -0.492187,-0.28125 h -7.769531 c -0.234375,0 -0.492188,0 -0.492188,0.28125 0,0.28125 0.257813,0.28125 0.492188,0.28125 z m 0,0"
         style="fill:#000000;fill-opacity:1;fill-rule:nonzero;stroke:none" />
      <path
         id="path38"
         d="m 31.354945,-5.8487344 c -0.457031,0.082031 -0.632812,0.421875 -0.632812,0.703125 0,0.3398438 0.28125,0.4570313 0.480469,0.4570313 0.421875,0 0.726562,-0.375 0.726562,-0.7617188 0,-0.609375 -0.691406,-0.8789062 -1.289062,-0.8789062 -0.878907,0 -1.359375,0.8671875 -1.488282,1.1367187 -0.328125,-1.078125 -1.21875,-1.1367187 -1.476562,-1.1367187 -1.464844,0 -2.238281,1.8867187 -2.238281,2.1914062 0,0.058594 0.05859,0.140625 0.152343,0.140625 0.117188,0 0.140625,-0.09375 0.175782,-0.1523437 0.480468,-1.59375 1.441406,-1.8867188 1.863281,-1.8867188 0.644531,0 0.773437,0.5976563 0.773437,0.9375 0,0.3164063 -0.08203,0.65625 -0.257812,1.3359375 l -0.492188,1.96875 c -0.210937,0.85546877 -0.621093,1.65234377 -1.382812,1.65234377 -0.07031,0 -0.433594,0 -0.738281,-0.1875 0.515625,-0.10546875 0.632812,-0.52734375 0.632812,-0.70312497 0,-0.2929688 -0.210937,-0.4570313 -0.492187,-0.4570313 -0.339844,0 -0.714844,0.2929688 -0.714844,0.76171877 0,0.59765625 0.679687,0.8671875 1.289062,0.8671875 0.691407,0 1.183594,-0.5390625 1.488282,-1.125 0.222656,0.84375 0.9375,1.125 1.476562,1.125 1.453125,0 2.238281,-1.87499997 2.238281,-2.19140627 0,-0.070312 -0.05859,-0.1289062 -0.152343,-0.1289062 -0.128907,0 -0.140625,0.070312 -0.1875,0.1875 -0.386719,1.26562497 -1.21875,1.85156247 -1.863282,1.85156247 -0.503906,0 -0.773437,-0.375 -0.773437,-0.96093747 0,-0.3164063 0.05859,-0.5507813 0.292969,-1.5 l 0.492187,-1.9453125 c 0.222656,-0.8554688 0.703125,-1.4882813 1.371094,-1.4882813 0.02344,0 0.421875,0 0.726562,0.1875 z m 0,0"
         style="fill:#000000;fill-opacity:1;fill-rule:nonzero;stroke:none" />
      <path
         id="path39"
         d="m 33.807094,-4.905375 1.054687,-1.03125 c 1.558594,-1.3710938 2.15625,-1.9101563 2.15625,-2.90625 0,-1.1367188 -0.902344,-1.933594 -2.121094,-1.933594 -1.125,0 -1.851562,0.9140627 -1.851562,1.8046877 0,0.5507813 0.492187,0.5507813 0.527344,0.5507813 0.164062,0 0.515625,-0.1171875 0.515625,-0.5273438 0,-0.2578125 -0.1875,-0.515625 -0.527344,-0.515625 -0.08203,0 -0.105469,0 -0.128906,0.011719 0.222656,-0.6445312 0.761718,-1.0195312 1.335937,-1.0195312 0.914063,0 1.335938,0.8085937 1.335938,1.6289062 0,0.796875 -0.492188,1.5820312 -1.042969,2.203125 l -1.910156,2.1328125 c -0.105469,0.1054687 -0.105469,0.1289062 -0.105469,0.3632812 h 3.691406 l 0.28125,-1.734375 h -0.257812 c -0.04687,0.3046875 -0.117188,0.7382813 -0.210938,0.890625 -0.07031,0.082031 -0.726562,0.082031 -0.949219,0.082031 z m 0,0"
         style="fill:#000000;fill-opacity:1;fill-rule:nonzero;stroke:none" />
      <path
         id="path40"
         d="m 47.629359,-9.5987344 c 0.01172,-0.058594 0.03516,-0.140625 0.03516,-0.2109375 0,-0.140625 -0.140625,-0.140625 -0.164063,-0.140625 -0.02344,0 -0.726562,0.046875 -0.796875,0.070312 -0.234375,0.011719 -0.457031,0.035156 -0.714844,0.058594 -0.351562,0.023437 -0.457031,0.035156 -0.457031,0.2929687 0,0.1523438 0.117188,0.1523438 0.316406,0.1523438 0.703125,0 0.714844,0.1289062 0.714844,0.2695312 0,0.082031 -0.02344,0.1992188 -0.04687,0.2460938 l -0.867187,3.4804687 c -0.164063,-0.375 -0.550782,-0.9492187 -1.289063,-0.9492187 -1.628906,0 -3.375,2.0976562 -3.375,4.21875 0,1.41796872 0.832031,2.24999997 1.804688,2.24999997 0.796875,0 1.464843,-0.609375 1.863281,-1.08984375 0.152344,0.84375 0.820312,1.08984375 1.253906,1.08984375 0.433594,0 0.773438,-0.2578125 1.03125,-0.7734375 0.234375,-0.48046877 0.433594,-1.35937497 0.433594,-1.41796877 0,-0.070312 -0.05859,-0.1289062 -0.152344,-0.1289062 -0.128906,0 -0.140625,0.070312 -0.199219,0.28125 -0.210937,0.8554687 -0.480468,1.75781247 -1.078125,1.75781247 -0.410156,0 -0.433593,-0.375 -0.433593,-0.66796875 0,-0.046875 0,-0.35156252 0.09375,-0.75000002 z m -2.90625,7.8867188 c -0.07031,0.2460937 -0.07031,0.28125 -0.269531,0.5507812 -0.316406,0.39843752 -0.949219,1.01953127 -1.617187,1.01953127 -0.585938,0 -0.914063,-0.5390625 -0.914063,-1.38281247 0,-0.7851563 0.433594,-2.390625 0.714844,-3 0.480469,-0.9960938 1.160156,-1.5117188 1.722656,-1.5117188 0.9375,0 1.125,1.171875 1.125,1.2890625 0,0.011719 -0.03516,0.1992188 -0.05859,0.2226563 z m 9.785157,-4.1367188 c -0.457032,0.082031 -0.632813,0.421875 -0.632813,0.703125 0,0.3398438 0.28125,0.4570313 0.480469,0.4570313 0.421875,0 0.726562,-0.375 0.726562,-0.7617188 0,-0.609375 -0.691406,-0.8789062 -1.289062,-0.8789062 -0.878906,0 -1.359375,0.8671875 -1.488281,1.1367187 -0.328125,-1.078125 -1.21875,-1.1367187 -1.476563,-1.1367187 -1.464844,0 -2.238281,1.8867187 -2.238281,2.1914062 0,0.058594 0.05859,0.140625 0.152344,0.140625 0.117187,0 0.140625,-0.09375 0.175781,-0.1523437 0.480469,-1.59375 1.441406,-1.8867188 1.863281,-1.8867188 0.644531,0 0.773438,0.5976563 0.773438,0.9375 0,0.3164063 -0.08203,0.65625 -0.257813,1.3359375 l -0.492187,1.96875 c -0.210938,0.85546877 -0.621094,1.65234377 -1.382813,1.65234377 -0.07031,0 -0.433594,0 -0.738281,-0.1875 0.515625,-0.10546875 0.632812,-0.52734375 0.632812,-0.70312497 0,-0.2929688 -0.210937,-0.4570313 -0.492187,-0.4570313 -0.339844,0 -0.714844,0.2929688 -0.714844,0.76171877 0,0.59765625 0.679688,0.8671875 1.289063,0.8671875 0.691406,0 1.183593,-0.5390625 1.488281,-1.125 0.222656,0.84375 0.9375,1.125 1.476562,1.125 1.453125,0 2.238282,-1.87499997 2.238282,-2.19140627 0,-0.070312 -0.05859,-0.1289062 -0.152344,-0.1289062 -0.128906,0 -0.140625,0.070312 -0.1875,0.1875 -0.386719,1.26562497 -1.21875,1.85156247 -1.863281,1.85156247 -0.503907,0 -0.773438,-0.375 -0.773438,-0.96093747 0,-0.3164063 0.05859,-0.5507813 0.292969,-1.5 l 0.492187,-1.9453125 c 0.222657,-0.8554688 0.703125,-1.4882813 1.371094,-1.4882813 0.02344,0 0.421875,0 0.726563,0.1875 z m 0,0"
         style="fill:#000000;fill-opacity:1;fill-rule:nonzero;stroke:none" />
    </g>
  </g>
</svg>
